HIERARCHY
ROOT Hips
{
	OFFSET -3.958830 18.904000 13.208200
	CHANNELS 6 Xposition Yposition Zposition Zrotation Yrotation Xrotation 
	JOINT LHipJoint
	{
		OFFSET 0.000000 0.000000 0.000000
		CHANNELS 3 Zrotation Yrotation Xrotation
		JOINT LeftUpLeg
		{
			OFFSET 1.800000 -1.400000 0.085000
			CHANNELS 3 Zrotation Yrotation Xrotation
			JOINT LeftLeg
			{
				OFFSET 2.215000 -6.000000 0.000000
				CHANNELS 3 Zrotation Yrotation Xrotation
				JOINT LeftFoot
				{
					OFFSET 2.500000 -6.900000 0.000000
					CHANNELS 3 Zrotation Yrotation Xrotation
					JOINT LeftToeBase
					{
						OFFSET 0.200000 -0.500000 1.950000
						CHANNELS 3 Zrotation Yrotation Xrotation
						End Site
						{
							OFFSET 0.000000 0.000000 0.000000
						}
					}
				}
			}
		}
	}
	JOINT RHipJoint
	{
		OFFSET 0.000000 0.000000 0.000000
		CHANNELS 3 Zrotation Yrotation Xrotation
		JOINT RightUpLeg
		{
			OFFSET -1.800000 -1.400000 0.085000
			CHANNELS 3 Zrotation Yrotation Xrotation
			JOINT RightLeg
			{
				OFFSET -2.215000 -6.000000 0.000000
				CHANNELS 3 Zrotation Yrotation Xrotation
				JOINT RightFoot
				{
					OFFSET -2.500000 -6.900000 0.000000
					CHANNELS 3 Zrotation Yrotation Xrotation
					JOINT RightToeBase
					{
						OFFSET -0.200000 -0.500000 1.950000
						CHANNELS 3 Zrotation Yrotation Xrotation
						End Site
						{
							OFFSET 0.000000 0.000000 0.000000
						}
					}
				}
			}
		}
	}
	JOINT LowerBack
	{
		OFFSET 0.000000 0.000000 0.000000
		CHANNELS 3 Zrotation Yrotation Xrotation
		JOINT Spine
		{
			OFFSET -0.087000 1.940000 -0.288900
			CHANNELS 3 Zrotation Yrotation Xrotation
			JOINT Spine1
			{
				OFFSET 0.000000 1.950000 0.060000
				CHANNELS 3 Zrotation Yrotation Xrotation
				JOINT Neck
				{
					OFFSET 0.000000 0.000000 0.000000
					CHANNELS 3 Zrotation Yrotation Xrotation
					JOINT Neck1
					{
						OFFSET 0.000000 1.600000 0.340000
						CHANNELS 3 Zrotation Yrotation Xrotation
						JOINT Head
						{
							OFFSET 0.000000 1.667000 -0.240000
							CHANNELS 3 Zrotation Yrotation Xrotation
							End Site
							{
								OFFSET 0.000000 0.000000 0.000000
							}
						}
					}
				}
				JOINT LeftShoulder
				{
					OFFSET 0.000000 0.000000 0.000000
					CHANNELS 3 Zrotation Yrotation Xrotation
					JOINT LeftArm
					{
						OFFSET 2.700000 1.550000 -0.730000
						CHANNELS 3 Zrotation Yrotation Xrotation
						JOINT LeftForeArm
						{
							OFFSET 5.450000 0.000000 0.000000
							CHANNELS 3 Zrotation Yrotation Xrotation
							JOINT LeftHand
							{
								OFFSET 3.450000 0.000000 0.000000
								CHANNELS 3 Zrotation Yrotation Xrotation
								JOINT LeftHandIndex1
								{
									OFFSET 0.750000 0.000000 0.000000
									CHANNELS 3 Zrotation Yrotation Xrotation
									End Site
									{
										OFFSET 0.000000 0.000000 0.000000
									}
								}
							}
						}
					}
				}
				JOINT RightShoulder
				{
					OFFSET 0.000000 0.000000 0.000000
					CHANNELS 3 Zrotation Yrotation Xrotation
					JOINT RightArm
					{
						OFFSET -2.700000 1.550000 -0.730000
						CHANNELS 3 Zrotation Yrotation Xrotation
						JOINT RightForeArm
						{
							OFFSET -5.450000 0.000000 0.000000
							CHANNELS 3 Zrotation Yrotation Xrotation
							JOINT RightHand
							{
								OFFSET -3.450000 0.000000 0.000000
								CHANNELS 3 Zrotation Yrotation Xrotation
								JOINT RightHandIndex1
								{
									OFFSET -0.750000 0.000000 0.000000
									CHANNELS 3 Zrotation Yrotation Xrotation
									End Site
									{
										OFFSET 0.000000 0.000000 0.000000
									}
								}
							}
						}
					}
				}
			}
		}
	}
}
MOTION
Frames: 9
Frame Time: 0.016667
-0.565390 17.300440 -1.070640 -2.373459 -3.228338 0.054455 -14.355631 12.591020 2.849415 16.327735 -1.364214 -12.341068 -10.091275 7.099589 13.238640 0.102008 4.266911 3.010951 0.143710 0.042330 0.219730 18.766122 -12.396351 2.677663 -14.334122 0.050001 -18.170606 8.790834 -7.704193 20.353379 -0.223314 -4.064950 2.831272 -0.120200 -0.047560 0.069720 -5.347357 2.315542 -7.345392 26.319273 -0.850058 7.182580 -2.035386 0.277921 -3.279011 1.761652 10.074328 -11.505976 25.424263 -26.681068 42.374844 -0.488770 -17.477330 5.627350 -13.980835 -0.170504 3.537760 -39.393971 7.606111 -11.025150 33.020087 -53.726996 -13.281871 -3.270852 2.972896 0.207890 -0.083110 0.158360 0.090420 8.668031 -4.169331 5.056737 58.284513 -3.408055 -6.814464 5.331744 15.997185 -0.408989 2.732957 -1.211100 0.050680 0.004890 -0.154230 0.047730 
-0.568980 17.307180 -1.071540 -2.383513 -2.982427 0.250655 -14.352296 12.564638 2.839469 16.219968 -1.391870 -12.439833 -9.991638 6.993286 12.984529 0.091251 4.225403 3.030134 0.142250 0.040580 0.215460 18.776427 -12.404433 2.673388 -14.184413 0.050299 -18.228101 8.672486 -7.638766 20.202812 -0.213119 -4.051798 2.834681 -0.115670 -0.039810 0.076820 -5.372965 2.373375 -7.321445 26.738932 -0.830809 6.756737 -2.032651 0.249719 -3.192666 1.820998 10.309270 -11.319325 25.267527 -26.483330 40.577751 -0.652190 -17.432420 5.195400 -13.735405 -0.115977 3.499214 -39.801026 7.339512 -10.978487 32.359285 -53.215191 -12.818797 -3.287938 2.996689 0.194730 -0.072230 0.146530 0.090250 8.256276 -4.504185 4.956882 58.448121 -3.322038 -6.759901 5.459113 15.816835 -0.416613 2.731525 -1.228086 0.050430 -0.002690 -0.152230 0.049000 
-0.574910 17.313880 -1.070240 -2.350597 -2.703342 0.500768 -14.350922 12.521556 2.826527 16.074539 -1.407519 -12.438389 -9.921780 6.846141 12.467895 0.077475 4.178740 3.060287 0.132950 0.030480 0.202590 18.789127 -12.413003 2.664850 -13.997245 0.048653 -18.244254 8.509330 -7.534061 19.924715 -0.196135 -4.033662 2.847066 -0.112810 -0.016550 0.083900 -5.400824 2.456285 -7.286874 26.993550 -0.732574 6.159498 -2.016468 0.221821 -2.958035 1.874068 10.613493 -11.092159 25.057389 -26.157126 38.284176 -0.852470 -17.300430 4.800160 -13.450475 -0.195792 3.490815 -40.171148 7.007175 -10.929126 31.988473 -52.679456 -12.504060 -3.316296 3.012511 0.175590 -0.050440 0.124500 0.092800 7.828000 -4.830272 4.845011 58.751518 -3.258961 -6.746222 5.578263 15.654276 -0.439824 2.723825 -1.245363 0.043990 -0.003170 -0.144520 0.052360 
-0.581180 17.322550 -1.066680 -2.270862 -2.316198 0.796611 -14.356152 12.482900 2.814507 15.861767 -1.425348 -12.478285 -9.806906 6.669291 11.891682 0.056726 4.118893 3.091971 0.120160 0.022760 0.181790 18.795852 -12.417978 2.652069 -13.815629 0.028882 -18.188616 8.284806 -7.392463 19.516908 -0.175284 -4.008607 2.862889 -0.106780 0.008620 0.091980 -5.412810 2.521288 -7.249836 27.115438 -0.636906 5.519031 -1.981038 0.185002 -2.790836 1.937120 10.911717 -10.801584 24.708763 -25.742049 35.655575 -1.210880 -17.004050 4.259210 -13.297862 -0.247527 3.452512 -40.428896 6.754306 -10.869383 31.915908 -52.395413 -12.389975 -3.349689 3.027303 0.151930 -0.023590 0.099010 0.092920 7.495838 -5.189108 4.700764 59.064233 -3.290997 -6.773797 5.590336 15.447508 -0.480084 2.711277 -1.263233 0.037630 -0.004470 -0.130670 0.055920 
-0.587530 17.331700 -1.063210 -2.091599 -2.013637 1.172949 -14.365237 12.434150 2.800151 15.544402 -1.442290 -12.482198 -9.746518 6.488937 11.235041 0.032325 4.068357 3.127641 0.105990 0.011640 0.160180 18.802644 -12.417635 2.636874 -13.688231 0.025890 -18.194285 7.985615 -7.199528 19.003781 -0.148230 -3.975712 2.881314 -0.097480 0.044800 0.102510 -5.419019 2.593868 -7.200280 27.090338 -0.486620 4.794149 -1.930526 0.154301 -2.549977 2.017558 11.158173 -10.376754 24.129881 -25.199561 32.700795 -1.707010 -16.562280 3.708200 -13.278549 -0.224165 3.355981 -40.494733 6.499897 -10.756185 31.579038 -52.140712 -12.178383 -3.394401 3.045357 0.123180 0.012070 0.066120 0.095070 7.292482 -5.631482 4.458610 59.375109 -3.289750 -6.820120 5.502060 15.284871 -0.545553 2.694983 -1.285557 0.026140 -0.001660 -0.114950 0.059920 
-0.593870 17.341910 -1.060250 -1.886693 -1.754085 1.611916 -14.382009 12.387541 2.784046 15.179644 -1.465362 -12.551021 -9.643406 6.295112 10.596387 0.000238 4.025969 3.162438 0.095470 -0.000190 0.142270 18.803644 -12.405851 2.623894 -13.549145 0.051821 -18.178229 7.673946 -6.967082 18.328770 -0.123919 -3.934653 2.898773 -0.085910 0.088370 0.125600 -5.405746 2.647188 -7.144119 26.935376 -0.308749 4.054487 -1.807061 0.138914 -2.305924 2.113310 11.286960 -9.917022 23.403439 -24.576375 29.582660 -2.350180 -15.909230 3.031730 -13.320592 -0.140861 3.219479 -40.646103 6.270158 -10.643751 31.393162 -51.910447 -12.059528 -3.449578 3.063563 0.096440 0.054800 0.034590 0.099820 7.119284 -6.040651 4.203870 59.726772 -3.290224 -6.909791 5.261015 15.202697 -0.631198 2.671049 -1.312116 0.014380 0.001450 -0.096340 0.062880 
-0.601680 17.352250 -1.058500 -1.686679 -1.525137 2.128762 -14.408278 12.331439 2.767772 14.856305 -1.496448 -12.674950 -9.553642 6.091806 9.877800 -0.045579 3.998337 3.194375 0.089420 -0.007400 0.122300 18.801210 -12.370489 2.609895 -13.404241 0.107381 -18.169329 7.428843 -6.718347 17.522277 -0.096295 -3.898584 2.914533 -0.062850 0.143500 0.149230 -5.374651 2.675311 -7.075497 26.699709 -0.157721 3.276899 -1.640991 0.066541 -1.981605 2.259570 11.253069 -9.314436 22.485307 -23.808838 26.245566 -2.910180 -15.080400 2.206280 -13.587305 0.098744 2.988124 -40.688005 6.079180 -10.504139 31.789872 -51.819783 -12.239956 -3.514918 3.076190 0.067250 0.106720 -0.006450 0.107110 7.131821 -6.534548 3.820844 59.877479 -3.189013 -6.961472 5.100507 15.128661 -0.728095 2.637511 -1.345610 -0.004950 0.010580 -0.074650 0.064230 
-0.610380 17.365680 -1.057870 -1.463249 -1.268754 2.660596 -14.443388 12.289660 2.748371 14.491045 -1.535882 -12.888562 -9.344660 5.872343 9.242243 -0.110132 3.969375 3.222544 0.087700 -0.010140 0.102510 18.790406 -12.321806 2.596612 -13.265537 0.178612 -18.133502 7.187999 -6.461307 16.667665 -0.068120 -3.867760 2.925868 -0.031000 0.200290 0.173060 -5.319209 2.658329 -7.001971 26.367310 -0.032323 2.541610 -1.410962 -0.013342 -1.703058 2.411006 10.988683 -8.711902 21.422524 -23.047714 23.026596 -3.553480 -14.159110 1.306190 -14.063945 0.379978 2.683643 -40.705278 5.867843 -10.319316 32.446749 -51.601926 -12.509842 -3.587298 3.083988 0.040740 0.162030 -0.051780 0.112210 7.352029 -6.871978 3.465169 59.843443 -3.178168 -7.046159 4.920319 15.143567 -0.835639 2.592427 -1.382276 -0.029050 0.022360 -0.047370 0.060690 
-0.619950 17.377120 -1.053960 -1.141850 -0.945975 3.243057 -14.488004 12.246497 2.725878 14.020120 -1.591322 -13.139472 -9.124394 5.644211 8.627611 -0.176721 3.934970 3.249853 0.109230 0.013050 0.101010 18.773445 -12.261015 2.580444 -13.218725 0.239474 -18.049950 6.938835 -6.174020 15.679450 -0.043667 -3.845275 2.928208 0.018710 0.250560 0.202980 -5.242519 2.620914 -6.914223 25.827536 0.056356 1.734413 -1.180262 -0.164413 -1.434212 2.611317 10.500435 -8.052639 20.319292 -22.373394 19.711044 -4.413290 -13.117160 0.417470 -14.694586 0.865111 2.272115 -40.492265 5.679897 -10.039829 32.954107 -51.392487 -12.691292 -3.662936 3.111460 0.003570 0.220470 -0.095250 0.121580 7.672229 -7.241837 3.072692 59.785784 -3.175948 -7.099826 4.758701 15.167748 -0.975631 2.546077 -1.439141 -0.044120 0.026980 -0.033350 0.057160 
